<svg height="512" viewBox="0 0 59 58" width="512" xmlns="http://www.w3.org/2000/svg"><g id="Page-1" fill="none" fill-rule="evenodd"><g id="002---Opening-Present" fill-rule="nonzero"><path id="Shape" d="m14.331 32.035c-4.7 5.183-13.989 3.51-13.989 3.51l3.361-3.7-3.703-3.363 22.815-4.953z" fill="#f29c1f"/><path id="Shape" d="m22.763 23.972 2.775-23.63 3.702 3.358 3.36-3.7s2.564 9.079-2.14 14.262z" fill="#f29c1f"/><path id="Shape" d="m23.167 22.3-5.215-3.183s-6.549-4-11.656.946c-.28787943.2863603-.48656561.6500394-.572 1.047-.64714361 2.6385334-.30489804 5.4227474.962 7.826.47088463.8226502 1.28127987 1.3951246 2.214 1.564 1.734.307 4.851.6 7.373-.605z" fill="#f0c419"/><path id="Shape" d="m21.624 24-3.672-4.882s-4.612-6.131-.186-11.693c.2573157-.31404818.6001503-.54677277.987-.67 2.5635806-.90039746 5.3683763-.82923684 7.883.2.8635384.38700769 1.5123191 1.1353193 1.773 2.045.762662 2.4022815.8012666 4.9759246.111 7.4z" fill="#f0c419"/><path id="Shape" d="m53 31v25c-.0032948 1.1032019-.8967981 1.9967052-2 2h-30c-1.1032019-.0032948-1.9967052-.8967981-2-2v-26h33c.5522847 0 1 .4477153 1 1z" fill="#e64c3c"/><path id="Shape" d="m30.06 30-11.06 12.19v-12.19z" fill="#c03a2b"/><path id="Rectangle-path" d="m32 30h8v28h-8z" fill="#f0c419"/><g fill="#c03a2b"><path id="Shape" d="m49 37c-.5522847 0-1-.4477153-1-1v-2c0-.5522847.4477153-1 1-1s1 .4477153 1 1v2c0 .5522847-.4477153 1-1 1z"/><path id="Shape" d="m49 55c-.5522847 0-1-.4477153-1-1v-14c0-.5522847.4477153-1 1-1s1 .4477153 1 1v14c0 .5522847-.4477153 1-1 1z"/><path id="Shape" d="m23 55c-.5522847 0-1-.4477153-1-1v-14c0-.5522847.4477153-1 1-1s1 .4477153 1 1v14c0 .5522847-.4477153 1-1 1z"/></g><path id="Shape" d="m16.27 22.11c-1.42-.47-4.44-1.13-6.99.63-.23.16-.27.48-.06.6 2.2468163 1.2604887 4.9054586 1.5667009 7.38.85z" fill="#f29c1f"/><path id="Shape" d="m20.76 17.15c-.6-1.37-1.54-4.31-.04-7.01.13-.25.46-.32.59-.12 1.4820376 2.1087407 2.0449813 4.7285941 1.56 7.26v.01z" fill="#f29c1f"/><path id="Shape" d="m42.707 22.293c-.3904999-.3903819-1.0235001-.3903819-1.414 0l-.293.293-.293-.293c-.3923789-.3789722-1.0160848-.3735524-1.4018186.0121814s-.3911536 1.0094397-.0121814 1.4018186l.293.293-.293.293c-.2599566.2510745-.3642126.6228779-.2726972.9725073.0915155.3496295.3645604.6226744.7141899.7141899.3496294.0915154.7214328-.0127406.9725073-.2726972l.293-.293.293.293c.3923789.3789722 1.0160848.3735524 1.4018186-.0121814s.3911536-1.0094397.0121814-1.4018186l-.293-.293.293-.293c.3903819-.3904999.3903819-1.0235001 0-1.414z" fill="#955ba5"/><path id="Shape" d="m53.707 21.293c-.3904999-.3903819-1.0235001-.3903819-1.414 0l-.293.293-.293-.293c-.3923789-.3789722-1.0160848-.3735524-1.4018186.0121814s-.3911536 1.0094397-.0121814 1.4018186l.293.293-.293.293c-.2599566.2510745-.3642126.6228779-.2726972.9725073.0915155.3496295.3645604.6226744.7141899.7141899.3496294.0915154.7214328-.0127406.9725073-.2726972l.293-.293.293.293c.3923789.3789722 1.0160848.3735524 1.4018186-.0121814s.3911536-1.0094397.0121814-1.4018186l-.293-.293.293-.293c.3903819-.3904999.3903819-1.0235001 0-1.414z" fill="#955ba5"/><path id="Shape" d="m58.414 15 .293-.293c.3789722-.3923789.3735524-1.0160848-.0121814-1.4018186s-1.0094397-.3911536-1.4018186-.0121814l-.293.293-.293-.293c-.3923789-.3789722-1.0160848-.3735524-1.4018186.0121814s-.3911536 1.0094397-.0121814 1.4018186l.293.293-.293.293c-.2599566.2510745-.3642126.6228779-.2726972.9725073.0915155.3496295.3645604.6226744.7141899.7141899.3496294.0915154.7214328-.0127406.9725073-.2726972l.293-.293.293.293c.3923789.3789722 1.0160848.3735524 1.4018186-.0121814s.3911536-1.0094397.0121814-1.4018186z" fill="#f0c419"/><path id="Shape" d="m48.707 15.293c-.3904999-.3903819-1.0235001-.3903819-1.414 0l-.293.293-.293-.293c-.3923789-.3789722-1.0160848-.3735524-1.4018186.0121814s-.3911536 1.0094397-.0121814 1.4018186l.293.293-.293.293c-.2599566.2510745-.3642126.6228779-.2726972.9725073.0915155.3496295.3645604.6226744.7141899.7141899.3496294.0915154.7214328-.0127406.9725073-.2726972l.293-.293.293.293c.3923789.3789722 1.0160848.3735524 1.4018186-.0121814s.3911536-1.0094397.0121814-1.4018186l-.293-.293.293-.293c.3903819-.3904999.3903819-1.0235001 0-1.414z" fill="#f0c419"/><path id="Shape" d="m50.707 10.707.293-.293.293.293c.3923789.3789722 1.0160848.3735524 1.4018186-.0121814s.3911536-1.00943971.0121814-1.4018186l-.293-.293.293-.293c.3789722-.39237889.3735524-1.01608478-.0121814-1.40181858-.3857338-.38573379-1.0094397-.39115363-1.4018186-.01218142l-.293.293-.293-.293c-.3923789-.37897221-1.0160848-.37355237-1.4018186.01218142-.3857338.3857338-.3911536 1.00943969-.0121814 1.40181858l.293.293-.293.293c-.2599566.25107447-.3642126.62287789-.2726972.9725073.0915155.3496295.3645604.6226744.7141899.7141899.3496294.0915154.7214328-.0127406.9725073-.2726972z" fill="#955ba5"/><path id="Shape" d="m9.3578348 21.8362381h32c1.1045695 0 2 .8954305 2 2v5c0 .5522848-.4477153 1-1 1h-34c-.55228475 0-1-.4477152-1-1v-5c0-1.1045695.8954305-2 2-2z" fill="#e64c3c" transform="matrix(.672 -.741 .741 .672 -10.816 27.251)"/><path id="Rectangle-path" d="m19.358 21.836h12v8h-12z" fill="#f0c419" transform="matrix(.672 -.741 .741 .672 -10.816 27.251)"/><path id="Shape" d="m25.756 19.446-1.481-1.346c-.7856384-.7131738-1.8224452-1.0849772-2.8822584-1.03359-1.0598131.0513872-2.0557857.5217538-2.7687416 1.30759l-1.344 1.483c-1.4844562 1.635898-1.3617855 4.1654199.274 5.65l1.481 1.344z" fill="#f3d55b"/></g></g></svg>